<svg xmlns="http://www.w3.org/2000/svg" width="256" height="256" viewBox="0 0 256 256">
  <g transform="translate(1.41 1.41) scale(2.81)">
    <path d="M88 12.43H2c-1.104 0-2 .896-2 2V75.57c0 1.104.896 2 2 2h86c1.104 0 2-.896 2-2V14.43c0-1.105-.896-2-2-2zM12.763 43H4v-6.75h8.763V43zM12.763 47v6.75H4V47h8.763zM12.763 32.25H4V25.5h8.763v6.75zM4 57.75h8.763v6.75H4v-6.75zM16.763 16.43h56.475V73.57H16.763V16.43zM77.237 47H86v6.75h-8.763V47zM77.237 43v-6.75H86V43h-8.763zM77.237 32.25V25.5H86v6.75h-8.763zM77.237 57.75H86v6.75h-8.763v-6.75zM86 21.5h-8.763v-5.07H86V21.5zM12.763 16.43v5.07H4v-5.07h8.763zM4 68.5h8.763v5.07H4V68.5zM77.237 73.57V68.5H86v5.07h-8.763z"/>
    <path d="M34.25 59.004c-.35 0-.7-.092-1.012-.275-.612-.359-.988-1.016-.988-1.725V32.996c0-.709.376-1.366.988-1.725.611-.36 1.367-.368 1.987-.021l21.5 12.004c.633.353 1.025 1.021 1.025 1.746s-.393 1.393-1.025 1.746l-21.5 12.004c-.328.183-.664.268-1 .268zM36.25 36.403v17.193L51.647 45 36.25 36.403z"/>
  </g>
</svg>
